/* XPM */
static char * wxiv_icon_32_xpm[] = {
"32 32 6 1",
" 	c None",
".	c #FFFFFF",
"+	c #525252",
"@	c #8A8989",
"#	c #AAAAAA",
"$	c #D1D0D0",
"                                ",
" .............................. ",
" .............................. ",
" ..+++++++++++++.@@@@@@@@@@@@.. ",
" ..+++++++++++++.@@@@@@@@@@@@.. ",
" ..+++++++++++++.@@@@@@@@@@@@.. ",
" ..+++++++++++++.@@@@@@@@@@@@.. ",
" ..+++++++++++++.@@@@@@@@@@@@.. ",
" ..+++++++++++++.@@@@@@@@@@@@.. ",
" ..+++++++++++++.@@@@@@@@@@@@.. ",
" ..+++++++++++++.@@@@@@@@@@@@.. ",
" ..+++++++++++++.@@@@@@@@@@@@.. ",
" ..+++++++++++++.@@@@@@@@@@@@.. ",
" ..+++++++++++++.@@@@@@@@@@@@.. ",
" ..+++++++++++++.@@@@@@@@@@@@.. ",
" .............................. ",
" ..#############.$$$$$$$$$$$$.. ",
" ..#############.$$$$$$$$$$$$.. ",
" ..#############.$$$$$$$$$$$$.. ",
" ..#############.$$$$$$$$$$$$.. ",
" ..#############.$$$$$$$$$$$$.. ",
" ..#############.$$$$$$$$$$$$.. ",
" ..#############.$$$$$$$$$$$$.. ",
" ..#############.$$$$$$$$$$$$.. ",
" ..#############.$$$$$$$$$$$$.. ",
" ..#############.$$$$$$$$$$$$.. ",
" ..#############.$$$$$$$$$$$$.. ",
" ..#############.$$$$$$$$$$$$.. ",
" ..#############.$$$$$$$$$$$$.. ",
" .............................. ",
" .............................. ",
"                                "};
