/* XPM */
static char * wxiv_icon_16_xpm[] = {
"16 16 14 1",
" 	c None",
".	c #FFFFFF",
"+	c #D3D3D3",
"@	c #A8A8A8",
"#	c #E1E1E1",
"$	c #C4C4C4",
"%	c #525252",
"&	c #8A8989",
"*	c #D4D4D4",
"=	c #AAAAAA",
"-	c #E8E7E7",
";	c #D1D0D0",
">	c #E9E9E9",
",	c #F3F3F3",
" .............. ",
".+@@@@@@#$$$$$#.",
".@%%%%%%$&&&&&$.",
".@%%%%%%$&&&&&$.",
".@%%%%%%$&&&&&$.",
".@%%%%%%$&&&&&$.",
".@%%%%%%$&&&&&$.",
".+@@@@@@#$$$$$#.",
".*======-;;;;;-.",
".*======-;;;;;-.",
".*======-;;;;;-.",
".*======-;;;;;-.",
".*======-;;;;;-.",
".*======-;;;;;-.",
".>******,-----,.",
" .............. "};
